<svg xmlns="http://www.w3.org/2000/svg" viewBox="0 0 200 200" role="img" aria-label="AgentHero">
  <defs>
    <clipPath id="hexClip">
      <path transform="scale(8.333)" d="M21 16V8a2 2 0 0 0-1-1.73l-7-4a2 2 0 0 0-2 0l-7 4A2 2 0 0 0 3 8v8a2 2 0 0 0 1 1.73l7 4a2 2 0 0 0 2 0l7-4A2 2 0 0 0 21 16z"/>
    </clipPath>
  </defs>
  <path transform="scale(8.333)" d="M21 16V8a2 2 0 0 0-1-1.73l-7-4a2 2 0 0 0-2 0l-7 4A2 2 0 0 0 3 8v8a2 2 0 0 0 1 1.73l7 4a2 2 0 0 0 2 0l7-4A2 2 0 0 0 21 16z" fill="#0f172a"/>
  <g transform="translate(40, 40) scale(5)" stroke="#1DAFBF" stroke-width="2" stroke-linecap="round" stroke-linejoin="round" fill="none">
    <path d="M12 8V4H8"/>
    <rect width="16" height="12" x="4" y="8" rx="2"/>
    <path d="M2 14h2"/>
    <path d="M20 14h2"/>
    <path d="M15 13v2"/>
    <path d="M9 13v2"/>
  </g>
</svg>
